<svg id="Layer_1" data-name="Layer 1" xmlns="http://www.w3.org/2000/svg" xmlns:xlink="http://www.w3.org/1999/xlink" viewBox="0 0 1000 300"><defs><style>.cls-1{fill:#e94a49;}.cls-2{fill:#fdebe7;}.cls-3{fill:url(#linear-gradient);}.cls-4{fill:url(#linear-gradient-2);}.cls-5{fill:#ed9d9d;}</style><linearGradient id="linear-gradient" x1="97.86" y1="144.16" x2="236.67" y2="144.16" gradientUnits="userSpaceOnUse"><stop offset="0" stop-color="#ed9d9d"/><stop offset="1" stop-color="#e94a49"/></linearGradient><linearGradient id="linear-gradient-2" x1="107.1" y1="186.78" x2="245.91" y2="186.78" gradientUnits="userSpaceOnUse"><stop offset="0" stop-color="#e94a49"/><stop offset="1" stop-color="#ed9d9d"/></linearGradient></defs><path class="cls-1" d="M228.13,212.74a376.05,376.05,0,0,1-112.49,0,10,10,0,0,1-8.53-9.93V126.37a10,10,0,0,1,10-10H226.63a10,10,0,0,1,10,10v76.44A10,10,0,0,1,228.13,212.74Z"/><circle class="cls-1" cx="180.76" cy="91.63" r="16.74"/><circle class="cls-2" cx="175.92" cy="83.64" r="4.83"/><path class="cls-1" d="M182.27,80.39a2.78,2.78,0,0,1-1.28-.31,2.82,2.82,0,0,1-1.23-3.79c12.08-23.61,30.9-20.83,31.7-20.7a2.82,2.82,0,0,1-.9,5.56c-.67-.1-15.66-2.09-25.79,17.7A2.79,2.79,0,0,1,182.27,80.39Z"/><path class="cls-3" d="M236.67,140.29v18.09h-2.55c-9.24,0-14.36-3.88-18.08-6.71-3.1-2.34-4.79-3.63-9.17-3.63s-6.09,1.29-9.19,3.63c-3.72,2.83-8.83,6.71-18.08,6.71s-14.36-3.88-18.09-6.71c-3.09-2.34-4.8-3.63-9.18-3.63s-6.07,1.29-9.17,3.63c-3.73,2.83-8.83,6.71-18.08,6.71s-14.36-3.88-18.1-6.71c-3.07-2.32-4.78-3.62-9.12-3.63V130c9.23,0,14.32,3.86,18,6.69,3.09,2.35,4.8,3.65,9.18,3.65s6.07-1.3,9.17-3.65c3.74-2.83,8.83-6.69,18.08-6.69s14.36,3.86,18.09,6.69c3.09,2.35,4.8,3.65,9.18,3.65s6.09-1.3,9.17-3.65c3.73-2.83,8.83-6.69,18.1-6.69s14.35,3.86,18.08,6.69c3.09,2.35,4.8,3.65,9.17,3.65Z"/><path class="cls-4" d="M245.91,172.57v18.09c-4.34,0-6,1.31-9.13,3.63-3.73,2.83-8.84,6.71-18.09,6.71s-14.34-3.88-18.08-6.71c-3.1-2.34-4.79-3.63-9.17-3.63s-6.09,1.28-9.18,3.63c-3.73,2.83-8.84,6.71-18.09,6.71s-14.35-3.88-18.08-6.71c-3.09-2.35-4.8-3.63-9.18-3.63s-6.08,1.28-9.17,3.63C124,197.12,118.9,201,109.65,201H107.1V182.91h2.55c4.39,0,6.08-1.29,9.18-3.65,3.71-2.83,8.83-6.69,18.08-6.69s14.36,3.86,18.08,6.69c3.11,2.36,4.81,3.65,9.18,3.65s6.09-1.29,9.17-3.65c3.74-2.83,8.84-6.69,18.1-6.69s14.35,3.86,18.08,6.69c3.1,2.36,4.79,3.65,9.17,3.65s6.09-1.29,9.18-3.65C231.59,176.43,236.68,172.58,245.91,172.57Z"/><path class="cls-5" d="M268.14,182.56l-10.29,5.94-10.29,5.95a1.11,1.11,0,0,1-1.65-1V169.73a1.11,1.11,0,0,1,1.65-1l10.29,5.94,10.29,5.95A1.1,1.1,0,0,1,268.14,182.56Z"/><path class="cls-5" d="M97.86,127.11v23.76a1.11,1.11,0,0,1-1.65,1l-10.29-6-10.29-5.94a1.1,1.1,0,0,1,0-1.9l10.29-5.95,10.29-5.93A1.1,1.1,0,0,1,97.86,127.11Z"/><path class="cls-1" d="M358.15,212.17a38.62,38.62,0,0,1-17-3.71,37.17,37.17,0,0,1-13-10.27A40.44,40.44,0,0,1,320.6,183a46.49,46.49,0,0,1-.92-18.48A53.66,53.66,0,0,1,325.79,146a58.58,58.58,0,0,1,11.85-15.17,55.36,55.36,0,0,1,15.85-10.24,45.78,45.78,0,0,1,18.05-3.71A37.74,37.74,0,0,1,405,135.76l-17.46,8.73a21.63,21.63,0,0,0-7.78-6.93A22.51,22.51,0,0,0,369,135a26.49,26.49,0,0,0-10.79,2.3,33,33,0,0,0-9.52,6.37,36.65,36.65,0,0,0-7.16,9.38,34.07,34.07,0,0,0-3.71,11.49,29.89,29.89,0,0,0,.49,11.46,25.26,25.26,0,0,0,4.47,9.38,22.28,22.28,0,0,0,17.95,8.7,26.44,26.44,0,0,0,11.49-2.62,34.19,34.19,0,0,0,9.78-7l14.9,8.79A57.26,57.26,0,0,1,379.42,207,46,46,0,0,1,358.15,212.17Z"/><path class="cls-1" d="M460.63,144.82h18.11l-9.19,65.64H451.37l.07-6.82a24.85,24.85,0,0,1-7.42,6.17,20,20,0,0,1-9.72,2.36,31.65,31.65,0,0,1-13.36-2.76,29.09,29.09,0,0,1-10.14-7.61,29.72,29.72,0,0,1-6-11.26,32.55,32.55,0,0,1-.79-13.75,36.86,36.86,0,0,1,4.43-13.13,41.87,41.87,0,0,1,8.7-10.77,40.85,40.85,0,0,1,11.72-7.29A35.69,35.69,0,0,1,442.38,143a20.73,20.73,0,0,1,10.5,2.56,25.74,25.74,0,0,1,7.55,6.5Zm-24.42,50a16.49,16.49,0,0,0,8.46-2.29,20.58,20.58,0,0,0,9.92-14.84,16.77,16.77,0,0,0-.92-8.67,13.65,13.65,0,0,0-4.86-6.17,13.18,13.18,0,0,0-7.75-2.29,16.87,16.87,0,0,0-8.53,2.29,20.47,20.47,0,0,0-6.7,6.21,19.73,19.73,0,0,0-3.34,8.63,16.17,16.17,0,0,0,1,8.63,13.86,13.86,0,0,0,5,6.21A13.35,13.35,0,0,0,436.21,194.77Z"/><path class="cls-1" d="M543.73,210.46H522.86l-10.57-24L503,196l-2,14.44H482.81L496.6,112h18.12l-7.88,55.87,22.58-23h23.63l-26.32,27Z"/><path class="cls-1" d="M577.74,212.17a27.34,27.34,0,0,1-15.86-4.66A28.05,28.05,0,0,1,551.77,195a32.67,32.67,0,0,1-2-17.4,38.74,38.74,0,0,1,4.43-13.42,43.07,43.07,0,0,1,8.63-11,40.34,40.34,0,0,1,11.53-7.45A33.2,33.2,0,0,1,587.45,143a27.77,27.77,0,0,1,13.79,3.35,27,27,0,0,1,9.68,9.12,30.87,30.87,0,0,1,4.6,13.07A37,37,0,0,1,614,183.68H568.48a13.63,13.63,0,0,0,1.94,5.22,10.81,10.81,0,0,0,3.94,3.71,12.42,12.42,0,0,0,5.94,1.44,13.26,13.26,0,0,0,6.53-1.57,19.48,19.48,0,0,0,5.55-4.4l17.85,4.26a42.32,42.32,0,0,1-13.92,14.28A34,34,0,0,1,577.74,212.17Zm-8.08-41.88h28a13.87,13.87,0,0,0-2.1-5.91,12.72,12.72,0,0,0-4.34-4.14,11.69,11.69,0,0,0-5.9-1.51,14.24,14.24,0,0,0-6.34,1.51,18.78,18.78,0,0,0-5.45,4.11A20.77,20.77,0,0,0,569.66,170.29Z"/><path class="cls-1" d="M653.69,132.08l-1.84,12.74h17.4l-2.56,18.12H649.36l-6.7,47.52H624.54l6.7-47.52h-6.63l2.56-18.12h6.56l1.84-12.74a23.48,23.48,0,0,1,4.5-10.86,27.9,27.9,0,0,1,9-7.85,23.07,23.07,0,0,1,11.32-3,20.48,20.48,0,0,1,8.44,1.8,16.75,16.75,0,0,1,6.79,5.62l-14.83,12.8a2.78,2.78,0,0,0-1.15-1.58,3.18,3.18,0,0,0-1.74-.52,4.3,4.3,0,0,0-2.76,1A3.83,3.83,0,0,0,653.69,132.08Z"/><path class="cls-1" d="M698.39,212.17a27.31,27.31,0,0,1-15.85-4.66A28.05,28.05,0,0,1,672.43,195a32.57,32.57,0,0,1-2-17.4,38.33,38.33,0,0,1,4.43-13.42,42.85,42.85,0,0,1,8.63-11A40.43,40.43,0,0,1,695,145.67a33.24,33.24,0,0,1,13.1-2.69,27.73,27.73,0,0,1,13.78,3.35,27.07,27.07,0,0,1,9.69,9.12,30.72,30.72,0,0,1,4.59,13.07,36.83,36.83,0,0,1-1.48,15.16H689.14a13.62,13.62,0,0,0,1.93,5.22,11,11,0,0,0,3.94,3.71,12.42,12.42,0,0,0,5.94,1.44,13.23,13.23,0,0,0,6.53-1.57,19.48,19.48,0,0,0,5.55-4.4l17.86,4.26A42.32,42.32,0,0,1,717,206.62,34,34,0,0,1,698.39,212.17Zm-8.07-41.88h28a13.61,13.61,0,0,0-2.1-5.91,12.69,12.69,0,0,0-4.33-4.14,11.7,11.7,0,0,0-5.91-1.51,14.17,14.17,0,0,0-6.33,1.51,18.52,18.52,0,0,0-5.45,4.11A20.77,20.77,0,0,0,690.32,170.29Z"/><path class="cls-1" d="M784.26,162.94H772.37l-6.63,47.52H747.62l6.64-47.52h-9l2.5-18.12h9.06l2.88-20.62h18.12l-2.89,20.62h11.82Z"/><path class="cls-1" d="M829.75,189.72l15,8.8a42.2,42.2,0,0,1-12.73,9.91,33.68,33.68,0,0,1-15.43,3.74,27.31,27.31,0,0,1-15.85-4.66A28.08,28.08,0,0,1,790.66,195a32.49,32.49,0,0,1-2-17.36,38.83,38.83,0,0,1,4.43-13.49,42.89,42.89,0,0,1,8.64-11,40.15,40.15,0,0,1,11.52-7.45A33.23,33.23,0,0,1,826.33,143a27.81,27.81,0,0,1,14.41,3.74,27.22,27.22,0,0,1,10,10l-17.59,8.8a11.43,11.43,0,0,0-4.14-3.31,11.93,11.93,0,0,0-5.19-1.15,14.3,14.3,0,0,0-7.77,2.29,20,20,0,0,0-6.11,6.08,20.3,20.3,0,0,0-3.12,8.17,16.56,16.56,0,0,0,.79,8.07,13.09,13.09,0,0,0,4.4,6,11.52,11.52,0,0,0,7.22,2.3,13.81,13.81,0,0,0,5.55-1.18A20,20,0,0,0,829.75,189.72Z"/><path class="cls-1" d="M919.42,168.71l-5.78,41.75H895.53l5.18-36.76a11.23,11.23,0,0,0-.82-6.27,10.2,10.2,0,0,0-3.84-4.43,11,11,0,0,0-6-1.64,13.31,13.31,0,0,0-6.43,1.64,15.17,15.17,0,0,0-5.06,4.43A13.46,13.46,0,0,0,876,173.7l-5.19,36.76H852.72L866.44,112h18.12l-5.25,37.69a29.56,29.56,0,0,1,8.47-4.93,26.78,26.78,0,0,1,9.58-1.77,22.3,22.3,0,0,1,12.48,3.48,21.61,21.61,0,0,1,8,9.29A22.65,22.65,0,0,1,919.42,168.71Z"/></svg>