<?xml version="1.0" encoding="utf-8"?>
<!-- Generator: Adobe Illustrator 25.0.0, SVG Export Plug-In . SVG Version: 6.00 Build 0)  -->
<svg version="1.1" id="Layer_1" xmlns="http://www.w3.org/2000/svg" xmlns:xlink="http://www.w3.org/1999/xlink" x="0px" y="0px"
	 viewBox="0 0 1000 300" style="enable-background:new 0 0 1000 300;" xml:space="preserve">
<style type="text/css">
	.st0{fill:#E94A49;}
	.st1{fill:#FDEBE7;}
	.st2{fill:url(#SVGID_1_);}
	.st3{fill:url(#SVGID_2_);}
	.st4{fill:#ED9D9D;}
</style>
<path class="st0" d="M228.1,212.7c-37.3,5.6-75.2,5.6-112.5,0c-4.9-0.7-8.5-5-8.5-9.9v-76.4c0-5.5,4.5-10,10-10h109.5
	c5.5,0,10,4.5,10,10v76.4C236.7,207.8,233,212,228.1,212.7z"/>
<circle class="st0" cx="173.8" cy="91.6" r="16.7"/>
<circle class="st1" cx="168.9" cy="83.6" r="4.8"/>
<path class="st0" d="M175.3,80.4c-0.4,0-0.9-0.1-1.3-0.3c-1.4-0.7-1.9-2.4-1.2-3.8c12.1-23.6,30.9-20.8,31.7-20.7
	c1.5,0.3,2.5,1.8,2.2,3.4c-0.3,1.4-1.6,2.4-3.1,2.2c-0.7-0.1-15.7-2.1-25.8,17.7C177.3,79.8,176.3,80.4,175.3,80.4z"/>
<linearGradient id="SVGID_1_" gradientUnits="userSpaceOnUse" x1="97.86" y1="144.25" x2="236.67" y2="144.25">
	<stop  offset="0" style="stop-color:#ED9D9D"/>
	<stop  offset="1" style="stop-color:#E94A49"/>
</linearGradient>
<path class="st2" d="M236.7,140.3v18.1h-2.6c-9.2,0-14.4-3.9-18.1-6.7c-3.1-2.3-4.8-3.6-9.2-3.6s-6.1,1.3-9.2,3.6
	c-3.7,2.8-8.8,6.7-18.1,6.7s-14.4-3.9-18.1-6.7c-3.1-2.3-4.8-3.6-9.2-3.6s-6.1,1.3-9.2,3.6c-3.7,2.8-8.8,6.7-18.1,6.7
	s-14.4-3.9-18.1-6.7c-3.1-2.3-4.8-3.6-9.1-3.6v-18c9.2,0,14.3,3.9,18,6.7c3.1,2.4,4.8,3.6,9.2,3.6c4.4,0,6.1-1.3,9.2-3.6
	c3.7-2.8,8.8-6.7,18.1-6.7s14.4,3.9,18.1,6.7c3.1,2.4,4.8,3.6,9.2,3.6s6.1-1.3,9.2-3.6c3.7-2.8,8.8-6.7,18.1-6.7s14.4,3.9,18.1,6.7
	c3.1,2.4,4.8,3.6,9.2,3.6L236.7,140.3z"/>
<linearGradient id="SVGID_2_" gradientUnits="userSpaceOnUse" x1="107.1" y1="186.8" x2="245.91" y2="186.8">
	<stop  offset="0" style="stop-color:#E94A49"/>
	<stop  offset="1" style="stop-color:#ED9D9D"/>
</linearGradient>
<path class="st3" d="M245.9,172.6v18.1c-4.3,0-6,1.3-9.1,3.6c-3.7,2.8-8.8,6.7-18.1,6.7s-14.3-3.9-18.1-6.7
	c-3.1-2.3-4.8-3.6-9.2-3.6s-6.1,1.3-9.2,3.6c-3.7,2.8-8.8,6.7-18.1,6.7s-14.4-3.9-18.1-6.7c-3.1-2.4-4.8-3.6-9.2-3.6
	s-6.1,1.3-9.2,3.6c-3.7,2.8-8.8,6.7-18.1,6.7h-2.6v-18.1h2.6c4.4,0,6.1-1.3,9.2-3.6c3.7-2.8,8.8-6.7,18.1-6.7s14.4,3.9,18.1,6.7
	c3.1,2.4,4.8,3.6,9.2,3.6s6.1-1.3,9.2-3.6c3.7-2.8,8.8-6.7,18.1-6.7s14.4,3.9,18.1,6.7c3.1,2.4,4.8,3.6,9.2,3.6s6.1-1.3,9.2-3.6
	C231.6,176.4,236.7,172.6,245.9,172.6z"/>
<path class="st4" d="M267.1,182.6l-10.3,5.9l-10.3,5.9c-0.5,0.3-1.2,0.1-1.5-0.4c-0.1-0.2-0.1-0.4-0.1-0.6v-23.7
	c0-0.6,0.5-1.1,1.1-1.1c0.2,0,0.4,0,0.6,0.1l10.3,5.9l10.3,5.9c0.5,0.3,0.7,1,0.5,1.5C267.5,182.3,267.3,182.5,267.1,182.6z"/>
<path class="st4" d="M98.9,127.1v23.8c0,0.6-0.5,1.1-1.1,1.1c-0.2,0-0.4,0-0.6-0.1l-10.3-6L76.6,140c-0.5-0.3-0.7-1-0.4-1.5
	c0.1-0.2,0.2-0.3,0.4-0.4l10.3-5.9l10.3-5.9c0.5-0.3,1.2-0.1,1.5,0.4C98.8,126.7,98.9,126.9,98.9,127.1z"/>
<path class="st0" d="M358.1,212.2c-5.9,0.1-11.7-1.2-17-3.7c-5.1-2.4-9.5-5.9-13-10.3c-3.6-4.5-6.1-9.6-7.5-15.2
	c-1.5-6-1.9-12.3-0.9-18.5c0.9-6.5,3-12.8,6.1-18.5s7.1-10.8,11.9-15.2c4.7-4.3,10-7.8,15.9-10.2c5.7-2.4,11.8-3.7,18-3.7
	c13.8-0.3,26.6,7,33.5,18.9l-17.5,8.7c-2-2.9-4.7-5.3-7.8-6.9c-3.3-1.7-7-2.6-10.8-2.6c-3.7,0-7.4,0.8-10.8,2.3
	c-3.5,1.6-6.7,3.7-9.5,6.4c-2.9,2.7-5.3,5.9-7.2,9.4c-1.9,3.6-3.2,7.5-3.7,11.5c-0.6,3.8-0.4,7.7,0.5,11.5c0.8,3.4,2.3,6.6,4.5,9.4
	c4.3,5.6,10.9,8.8,18,8.7c4,0,7.9-0.9,11.5-2.6c3.6-1.7,7-4.1,9.8-7l14.9,8.8c-4.9,5.7-10.8,10.4-17.5,13.7
	C372.8,210.4,365.6,212.2,358.1,212.2z"/>
<path class="st0" d="M460.6,144.8h18.1l-9.2,65.6h-18.2l0.1-6.8c-2,2.5-4.6,4.6-7.4,6.2c-3,1.6-6.3,2.4-9.7,2.4
	c-4.6,0.1-9.2-0.9-13.4-2.8c-3.9-1.8-7.4-4.4-10.1-7.6c-2.8-3.3-4.8-7.1-6-11.3c-1.2-4.5-1.5-9.2-0.8-13.8c0.6-4.6,2.1-9.1,4.4-13.1
	s5.2-7.7,8.7-10.8s7.4-5.5,11.7-7.3c4.3-1.7,8.9-2.6,13.5-2.6c3.7-0.1,7.3,0.8,10.5,2.6c2.9,1.7,5.5,3.9,7.5,6.5L460.6,144.8z
	 M436.2,194.8c3,0,5.9-0.8,8.5-2.3c5.4-3.2,9-8.6,9.9-14.8c0.5-2.9,0.1-5.9-0.9-8.7c-1-2.5-2.7-4.6-4.9-6.2c-2.3-1.6-5-2.4-7.8-2.3
	c-3,0-5.9,0.8-8.5,2.3c-2.7,1.5-5,3.7-6.7,6.2c-1.8,2.6-2.9,5.5-3.3,8.6c-0.5,2.9-0.1,5.9,1,8.6c1,2.5,2.8,4.7,5,6.2
	C430.8,194.1,433.5,194.8,436.2,194.8L436.2,194.8z"/>
<path class="st0" d="M543.7,210.5h-20.9l-10.6-24L503,196l-2,14.4h-18.2l13.8-98.4h18.1l-7.9,55.9l22.6-23H553l-26.3,27L543.7,210.5
	z"/>
<path class="st0" d="M577.7,212.2c-5.6,0.1-11.2-1.5-15.9-4.7c-4.5-3.1-8-7.4-10.1-12.5c-2.2-5.5-2.9-11.5-2-17.4
	c0.6-4.7,2.1-9.3,4.4-13.4c2.3-4.1,5.2-7.8,8.6-11c3.4-3.1,7.3-5.6,11.5-7.4c4.1-1.8,8.6-2.7,13.1-2.7c4.8-0.1,9.6,1.1,13.8,3.4
	c3.9,2.2,7.3,5.3,9.7,9.1c2.5,4,4.1,8.4,4.6,13.1c0.5,5.1,0,10.3-1.5,15.1h-45.5c0.3,1.9,0.9,3.6,1.9,5.2c1,1.6,2.3,2.8,3.9,3.7
	c1.8,1,3.9,1.5,5.9,1.4c2.3,0,4.5-0.5,6.5-1.6c2.1-1.1,4-2.6,5.5-4.4l17.8,4.3c-3.4,5.8-8.2,10.7-13.9,14.3
	C590.8,210.2,584.3,212.2,577.7,212.2z M569.7,170.3h28c-0.2-2.1-1-4.1-2.1-5.9c-1.1-1.7-2.6-3.1-4.3-4.1c-1.8-1-3.8-1.5-5.9-1.5
	c-2.2,0-4.4,0.5-6.3,1.5c-2.1,1-3.9,2.4-5.5,4.1C571.9,166.1,570.6,168.1,569.7,170.3z"/>
<path class="st0" d="M653.7,132.1l-1.8,12.7h17.4l-2.6,18.1h-17.3l-6.7,47.5h-18.1l6.7-47.5h-6.6l2.6-18.1h6.6l1.8-12.7
	c0.6-3.9,2.1-7.7,4.5-10.9c2.4-3.2,5.5-5.9,9-7.8c3.5-2,7.4-3,11.3-3c2.9,0,5.8,0.6,8.4,1.8c2.7,1.2,5.1,3.2,6.8,5.6l-14.8,12.8
	c-0.2-0.6-0.6-1.2-1.2-1.6c-0.5-0.3-1.1-0.5-1.7-0.5c-1,0-2,0.4-2.8,1C654.3,130.1,653.8,131.1,653.7,132.1z"/>
<path class="st0" d="M698.4,212.2c-5.6,0.1-11.2-1.5-15.8-4.7c-4.5-3.1-8-7.4-10.1-12.5c-2.2-5.5-2.9-11.5-2-17.4
	c0.6-4.7,2.1-9.3,4.4-13.4c2.3-4.1,5.2-7.8,8.6-11c3.4-3.1,7.3-5.7,11.5-7.5c4.1-1.8,8.6-2.7,13.1-2.7c4.8-0.1,9.6,1.1,13.8,3.4
	c3.9,2.2,7.3,5.3,9.7,9.1c2.5,4,4.1,8.4,4.6,13.1c0.6,5.1,0.1,10.3-1.5,15.2h-45.5c0.3,1.9,0.9,3.6,1.9,5.2c1,1.5,2.3,2.8,3.9,3.7
	c1.8,1,3.9,1.5,5.9,1.4c2.3,0,4.5-0.5,6.5-1.6c2.1-1.1,4-2.6,5.5-4.4l17.9,4.3c-3.4,5.8-8.2,10.7-13.9,14.3
	C711.5,210.2,705,212.2,698.4,212.2z M690.3,170.3h28c-0.2-2.1-0.9-4.1-2.1-5.9c-1.1-1.7-2.6-3.1-4.3-4.1c-1.8-1-3.8-1.5-5.9-1.5
	c-2.2,0-4.4,0.5-6.3,1.5c-2.1,1-3.9,2.4-5.5,4.1C692.6,166.1,691.3,168.1,690.3,170.3z"/>
<path class="st0" d="M784.3,162.9h-11.9l-6.6,47.5h-18.1l6.6-47.5h-9l2.5-18.1h9.1l2.9-20.6h18.1l-2.9,20.6h11.8L784.3,162.9z"/>
<path class="st0" d="M829.8,189.7l15,8.8c-3.6,4.1-7.9,7.5-12.7,9.9c-4.8,2.5-10.1,3.7-15.4,3.7c-5.6,0.1-11.2-1.5-15.8-4.7
	c-4.5-3.1-8-7.4-10.1-12.5c-2.2-5.5-2.9-11.5-2-17.4c0.6-4.7,2.1-9.3,4.4-13.5c2.3-4.1,5.2-7.8,8.6-11c3.4-3.1,7.3-5.6,11.5-7.4
	c4.1-1.8,8.6-2.7,13.1-2.7c5.1-0.1,10,1.2,14.4,3.7c4.2,2.4,7.6,5.8,10,10l-17.6,8.8c-1.1-1.4-2.5-2.5-4.1-3.3s-3.4-1.2-5.2-1.1
	c-2.8,0-5.5,0.8-7.8,2.3c-2.5,1.6-4.5,3.6-6.1,6.1s-2.7,5.3-3.1,8.2c-0.4,2.7-0.1,5.5,0.8,8.1c0.9,2.4,2.4,4.5,4.4,6
	c2.1,1.6,4.6,2.4,7.2,2.3c1.9,0,3.8-0.4,5.5-1.2C826.6,192,828.3,191,829.8,189.7z"/>
<path class="st0" d="M919.4,168.7l-5.8,41.8h-18.1l5.2-36.8c0.3-2.1,0-4.3-0.8-6.3c-0.8-1.8-2.2-3.4-3.8-4.4c-1.8-1.1-3.9-1.7-6-1.6
	c-2.2,0-4.5,0.6-6.4,1.6c-2,1.1-3.7,2.6-5.1,4.4c-1.4,1.8-2.3,4-2.6,6.3l-5.2,36.8h-18.1l13.7-98.5h18.1l-5.2,37.7
	c2.5-2.1,5.4-3.8,8.5-4.9c3.1-1.2,6.3-1.8,9.6-1.8c4.4-0.1,8.8,1.1,12.5,3.5c3.5,2.3,6.3,5.5,8,9.3
	C919.6,159.8,920.2,164.3,919.4,168.7z"/>
</svg>
